<?xml version="1.0" encoding="UTF-8"?> <svg xmlns="http://www.w3.org/2000/svg" width="209" height="78" viewBox="0 0 209 78" fill="none"><path d="M181.458 44.2263C181.458 37.121 181.458 30.021 181.458 22.9158C181.458 22.1684 181.442 21.421 181.521 20.6842C181.711 19 182.074 18.7 183.769 18.7C188.721 18.7 193.679 18.7473 198.632 18.6737C199.958 18.6526 200.458 19.2158 200.542 20.3842C200.605 21.2579 200.669 22.1368 200.669 23.0105C200.679 37.1737 200.679 51.3368 200.669 65.4947C200.669 66.7526 200.763 68.0368 200.037 69.1947C199.605 69.8842 199.279 69.8947 198.769 69.2526C198.026 68.3158 197.995 67.2316 197.995 66.1473C197.984 54.8789 197.984 43.6105 197.979 32.3421C197.979 30.5421 197.932 28.7473 197.995 26.9473C198.032 25.8473 197.605 25.4579 196.532 25.5368C195.526 25.6052 194.516 25.5789 193.505 25.5473C192.658 25.521 192.3 25.9052 192.326 26.7263C192.342 27.2105 192.321 27.6895 192.321 28.1737C192.321 40.6684 192.332 53.1684 192.305 65.6631C192.305 66.9 192.553 68.2052 191.584 69.3C191.153 69.7947 190.958 69.8737 190.49 69.3421C189.8 68.5526 189.621 67.6684 189.621 66.6737C189.626 60.1421 189.621 53.6052 189.616 47.0737C189.616 40.4526 189.579 33.8316 189.642 27.2105C189.653 25.8631 189.232 25.3895 187.916 25.5316C187.095 25.621 186.247 25.5947 185.421 25.5368C184.484 25.4737 184.19 25.9 184.195 26.7737C184.216 30.1947 184.205 33.6158 184.195 37.0316C184.195 37.8631 184.521 38.3684 185.411 38.4052C186.574 38.4526 186.984 39.1368 186.984 40.221C186.974 49.3842 186.984 58.5473 186.958 67.7105C186.958 69.3263 186.311 69.7737 184.674 69.8895C181.769 70.0947 181.469 69.0473 181.469 66.7105C181.458 59.2105 181.469 51.7158 181.469 44.2158H181.458V44.2263Z" fill="#CE000B"></path><path d="M79.0106 43.8527C79.0106 51.0001 79.0264 58.1475 78.9948 65.2896C78.9895 66.6264 79.1422 68.0054 78.3474 69.2475C77.8843 69.9738 77.5948 70.1896 76.9211 69.3738C76.1948 68.4948 76.1895 67.5264 76.1843 66.5369C76.1632 60.3527 76.1264 54.1738 76.2001 47.9896C76.2158 46.5948 75.7053 46.2896 74.4632 46.2948C70.8474 46.2948 70.8474 46.2632 70.8474 49.8843C70.8474 54.7054 70.8474 59.5317 70.8474 64.3527C70.8474 65.0527 70.8579 65.758 70.8211 66.458C70.5948 70.6054 69.8579 70.0001 66.3632 69.9159C65.4843 69.8948 65.3369 69.0369 65.2422 68.3685C65.1053 67.3738 65.0474 66.358 65.0422 65.3527C65.0264 51.1896 65.0316 37.0317 65.0264 22.8685C65.0264 22.8264 65.0264 22.779 65.0264 22.7369C65.0685 18.8632 65.3053 18.6264 69.079 18.6264C71.7948 18.6264 74.5158 18.6632 77.2316 18.6159C78.3001 18.5948 78.779 19.0896 78.8527 20.058C78.9369 21.1948 79.0053 22.3317 79.0053 23.4738C79.0211 30.2685 79.0106 37.0632 79.0106 43.858V43.8527ZM67.9579 31.8054C67.9579 33.5106 67.9685 35.2159 67.9527 36.9211C67.9474 37.6054 68.1579 37.979 68.9264 37.9738C70.9369 37.9475 72.9527 37.958 74.9632 37.9738C75.658 37.979 76.0316 37.7264 76.0316 36.9896C76.0211 33.579 76.0211 30.1632 76.0264 26.7527C76.0264 25.9843 75.6843 25.658 74.9053 25.6685C72.979 25.6948 71.0527 25.7054 69.1316 25.6685C68.279 25.6527 67.9527 26.0054 67.9579 26.8211C67.979 28.4843 67.9632 30.1475 67.9579 31.8106V31.8054Z" fill="black"></path><path d="M111.532 43.9526C111.532 51.4105 111.532 58.8632 111.532 66.3211C111.532 67.4158 111.505 68.5 110.789 69.4526C110.347 70.0474 110.021 70.0684 109.574 69.5C109.189 69.0105 108.847 68.5211 108.832 67.8632C108.805 66.8105 108.732 65.7632 108.732 64.7105C108.721 59.0947 108.7 53.4842 108.753 47.8684C108.763 46.7526 108.453 46.3158 107.284 46.2947C103.353 46.2211 103.358 46.1842 103.353 50.1053C103.353 55.5 103.353 60.8947 103.337 66.2895C103.337 66.9474 103.358 67.6158 103.237 68.2579C103.042 69.2684 102.579 70.079 101.332 69.9737C101.116 69.9579 100.895 69.9737 100.674 69.9737C98.079 69.9737 97.7263 69.6632 97.6263 66.9842C97.5632 65.2737 97.5895 63.5632 97.5895 61.8526C97.5895 49.0895 97.5842 36.3316 97.5895 23.5684C97.5895 22.2579 97.5158 20.9474 97.979 19.6684C98.2368 18.9579 98.5684 18.6105 99.3737 18.6211C102.837 18.6579 106.305 18.6737 109.768 18.6158C110.926 18.5947 111.363 19.1684 111.437 20.1579C111.521 21.2947 111.547 22.4368 111.547 23.5737C111.558 30.3737 111.547 37.1684 111.547 43.9684H111.532V43.9526ZM108.584 31.8526C108.584 30.1895 108.553 28.5263 108.595 26.8632C108.616 25.9474 108.242 25.6368 107.347 25.6579C105.511 25.7053 103.668 25.7211 101.837 25.6579C100.842 25.6211 100.547 26.0158 100.558 26.9579C100.595 30.2368 100.589 33.5211 100.558 36.8053C100.553 37.6211 100.768 38.0053 101.658 37.9842C103.584 37.9421 105.511 37.9474 107.432 37.9842C108.274 38 108.611 37.7053 108.589 36.8421C108.547 35.179 108.579 33.5158 108.574 31.8526H108.584Z" fill="black"></path><path d="M48.0368 53.8422C48.0368 58.0106 48.0368 62.1738 48.0368 66.3422C48.0368 66.9527 48.0368 67.579 47.9263 68.179C47.7158 69.3264 47.1737 70.0211 45.8105 69.9896C42.6105 69.9159 39.4105 69.9738 36.2053 69.9633C34.8368 69.9633 34.1684 69.4054 34.1105 68.0211C33.9 62.9369 33.9421 57.8527 34.079 52.7685C34.0842 52.5527 34.0895 52.3159 34.1684 52.1211C34.4053 51.5211 34.5842 50.7948 35.4105 50.7948C36.2474 50.7948 36.479 51.479 36.6211 52.1317C36.8842 53.3422 36.7737 54.579 36.7842 55.8054C36.7947 57.7369 36.8053 59.6633 36.7842 61.5948C36.7737 62.4738 37.1316 62.8896 38.0421 62.8475C38.9158 62.8106 39.8 62.7738 40.6737 62.858C41.879 62.9738 42.1895 62.3843 42.1895 61.3159C42.1684 56.1843 42.1632 51.0527 42.1895 45.9212C42.1895 44.9738 41.8947 44.5896 40.9 44.6317C39.279 44.7001 37.6579 44.6633 36.0316 44.6422C34.6684 44.6264 34.1 44.1369 34.0737 42.7633C33.9368 35.4001 33.9211 28.0317 34.0842 20.6633C34.1211 18.8896 34.4737 18.6369 36.2316 18.6369C39.4316 18.6317 42.6368 18.6948 45.8368 18.6054C47.1316 18.5685 47.6368 19.1685 47.8842 20.2685C48.0895 21.179 48.0421 22.1001 48.0474 23.0212C48.0526 25.1685 48.0526 27.3212 48.0263 29.4685C48.0158 30.4054 47.7947 31.2843 47.1105 31.9948C46.7158 32.4001 46.4368 32.379 46.0263 31.9738C45.3579 31.3212 45.3053 30.4896 45.2316 29.6738C45.1421 28.7159 45.1316 27.7475 45.1316 26.7843C45.1316 26.0369 44.8684 25.6633 44.0526 25.679C41.9947 25.7159 39.9316 25.7054 37.8684 25.679C37.0684 25.6685 36.7947 26.0264 36.7947 26.7896C36.8105 30.1685 36.8211 33.5422 36.7842 36.9212C36.7737 37.8633 37.2684 37.9896 38.0211 37.9843C40.479 37.9685 42.9316 37.9738 45.3895 37.9843C47.3579 37.9896 48 38.5843 48.0158 40.5738C48.0474 45.0001 48.0263 49.4317 48.0263 53.8633C48.0316 53.8633 48.0368 53.8633 48.0421 53.8633L48.0368 53.8422Z" fill="black"></path><path d="M162.195 44.3053C162.195 37.3316 162.195 30.3632 162.195 23.3895C162.195 22.5106 162.195 21.6369 162.247 20.758C162.342 18.9895 162.647 18.7001 164.374 18.7001C167.532 18.7001 170.689 18.7737 173.842 18.6685C175.274 18.6211 175.716 19.258 175.747 20.5001C175.789 22.079 175.863 23.6527 175.874 25.2316C175.889 28.958 175.9 32.6843 175.863 36.4106C175.853 37.5632 176.089 38.4159 177.432 38.5159C178.074 38.5632 178.316 38.9685 178.342 39.579C178.384 40.7159 178.5 41.8527 178.5 42.9948C178.516 50.4474 178.521 57.9053 178.5 65.358C178.5 66.4053 178.374 67.458 178.221 68.4948C178.137 69.058 177.811 69.7001 177.253 69.7738C176.574 69.8685 176.384 69.1211 176.221 68.6106C175.932 67.7001 175.726 66.7738 175.732 65.7843C175.763 59.2948 175.747 52.8053 175.742 46.3159C175.742 44.6369 175.737 44.6369 174 44.6316C172.421 44.6316 170.837 44.7159 169.268 44.6053C167.942 44.5106 167.637 45.058 167.647 46.2632C167.695 52.1843 167.684 58.1001 167.674 64.0211C167.674 65.4211 167.626 66.8264 167.537 68.2264C167.463 69.3316 166.947 69.9211 165.695 69.9211C162.311 69.9211 162.21 69.8895 162.2 66.5264C162.184 59.1159 162.195 51.7053 162.195 44.2948H162.189L162.195 44.3053ZM173.074 31.8843C173.074 30.1737 173.053 28.4685 173.084 26.758C173.1 25.8527 172.726 25.5211 171.826 25.5422C169.9 25.5843 167.968 25.5737 166.042 25.5422C165.226 25.5264 164.858 25.7948 164.863 26.6737C164.895 30.1369 164.889 33.5948 164.863 37.058C164.858 38.0264 165.3 38.4001 166.216 38.3948C168.058 38.379 169.895 38.3737 171.737 38.3843C172.674 38.3843 173.089 37.9369 173.084 37.0159C173.068 35.3053 173.084 33.6001 173.079 31.8895L173.074 31.8843Z" fill="#CE000B"></path><path d="M31.1316 44.0842C31.1316 51.4053 31.1263 58.7263 31.1421 66.0526C31.1421 67.1263 30.9105 68.1474 30.4842 69.1C30.0053 70.1631 29.4474 70.1526 28.8158 69.2C28.2105 68.2895 28.0632 67.2789 28.0632 66.2052C28.0737 53.3579 28.0632 40.5105 28.0632 27.6684C28.0632 26.3386 27.4035 25.6737 26.0842 25.6737C24.4158 25.6737 22.7526 25.7052 21.0842 25.6631C20.2421 25.6421 19.9105 25.9474 19.9158 26.8052C19.9421 30.1789 19.9368 33.5579 19.9158 36.9316C19.9158 37.6263 20.1 37.9421 20.8684 37.9947C21.9421 38.0684 22.6211 38.6579 22.6474 39.8316C22.6632 40.621 22.7421 41.4052 22.7421 42.1947C22.7421 50.1316 22.7421 58.0684 22.7316 66C22.7316 66.2631 22.7316 66.5263 22.7316 66.7895C22.6368 69.8105 21.1526 70.8421 18.2421 69.8895C17.5211 69.6526 17.2737 69.0474 17.2158 68.3579C17.1158 67.1789 16.9789 66 16.9737 64.821C16.9526 51.2737 16.9526 37.7263 16.9684 24.1789C16.9684 22.7789 17.1263 21.3789 17.2368 19.9842C17.3105 19.0737 17.7263 18.5842 18.7474 18.6C22.3 18.6421 25.8526 18.6316 29.4 18.6105C30.1684 18.6105 30.5632 18.8579 30.7684 19.6526C31.0842 20.8631 31.1369 22.0737 31.1369 23.3C31.1369 30.2263 31.1369 37.1526 31.1369 44.0842H31.1316Z" fill="black"></path><path d="M145.532 44.0264C145.532 36.6159 145.532 29.2054 145.532 21.7948C145.532 21.4422 145.558 21.0948 145.59 20.7422C145.768 18.9106 145.995 18.7001 147.863 18.7001C150.847 18.7001 153.826 18.758 156.805 18.6685C157.995 18.6317 158.421 19.2685 158.747 20.1738C158.805 20.3369 158.811 20.5159 158.832 20.6896C159.316 24.479 158.684 25.2054 154.911 25.2001C153.158 25.2001 151.4 25.2211 149.647 25.1896C148.684 25.1738 148.211 25.4738 148.226 26.5475C148.274 30.0106 148.268 33.4738 148.226 36.9369C148.211 38.0317 148.642 38.4053 149.705 38.3843C152.026 38.3422 154.353 38.3632 156.679 38.3896C158.295 38.4106 158.7 38.8001 158.853 40.3843C158.9 40.8632 158.932 41.3475 158.905 41.8264C158.79 43.9211 158.647 44.9264 156.011 44.7106C154.79 44.6106 153.553 44.7422 152.332 44.679C151.332 44.6264 151.021 45.0896 151.021 46.0053C151.032 51.3527 151.032 56.7053 151.021 62.0527C151.021 63.0264 151.511 63.3843 152.405 63.3843C153.811 63.3843 155.211 63.3738 156.616 63.4159C158.158 63.4632 158.747 64.0264 158.858 65.5632C158.911 66.3053 158.916 67.058 158.837 67.7948C158.679 69.2632 157.99 69.858 156.553 69.8632C153.616 69.8632 150.679 69.8685 147.737 69.8632C146.295 69.8632 145.758 69.4053 145.637 67.9474C145.526 66.6422 145.495 65.3211 145.49 64.0106C145.474 57.3475 145.484 50.679 145.484 44.0159C145.505 44.0159 145.521 44.0159 145.542 44.0159L145.532 44.0264Z" fill="#CE000B"></path><path d="M128.758 44.5737C128.758 37.3368 128.747 30.1053 128.768 22.8684C128.768 21.7 128.589 20.4842 129.237 19.4C129.437 19.0684 129.621 18.7 130.121 18.7421C130.563 18.7789 130.668 19.121 130.816 19.4368C131.216 20.2737 131.453 21.1263 131.447 22.0789C131.416 26.9 131.432 31.7263 131.437 36.5474C131.437 38.321 131.495 38.3737 133.305 38.3737C134.926 38.3737 136.553 38.321 138.174 38.3842C139.332 38.4316 139.705 37.9632 139.695 36.8421C139.658 32.021 139.695 27.1947 139.668 22.3737C139.663 21.3421 139.858 20.3947 140.3 19.4737C140.474 19.1158 140.558 18.7368 141.079 18.7263C141.626 18.7158 141.858 19.0579 142.026 19.4789C142.547 20.7684 142.542 22.1421 142.542 23.4895C142.558 36.2947 142.542 49.0947 142.542 61.9C142.542 63.9158 142.632 65.9368 142.316 67.9368C142.274 68.1947 142.305 68.5 142.179 68.7052C141.921 69.1368 141.763 69.7684 141.168 69.8052C140.595 69.8421 140.432 69.2368 140.221 68.8316C139.795 68.0052 139.668 67.1105 139.668 66.1684C139.689 59.5052 139.647 52.8368 139.7 46.1737C139.711 44.9789 139.379 44.4947 138.158 44.6158C137.289 44.7 136.4 44.6947 135.532 44.6158C134.463 44.5263 134.2 44.9842 134.205 45.9842C134.237 52.2105 134.216 58.4368 134.216 64.6631C134.216 65.2316 134.216 65.8052 134.205 66.3737C134.116 69.8526 133.868 70.0526 130.405 69.9158C129.411 69.8737 128.947 69.4 128.858 68.5052C128.774 67.6368 128.763 66.7526 128.763 65.8789C128.758 58.7737 128.763 51.6737 128.763 44.5684L128.758 44.5737Z" fill="#CE000B"></path><path d="M118.684 46.6262C118.684 40.0472 118.684 33.4683 118.684 26.8893C118.684 25.2735 118.605 25.2051 116.958 25.1998C113.9 25.1946 113.195 24.4209 113.442 21.3788C113.621 19.1472 114.111 18.6946 116.316 18.6946C118.905 18.6946 121.489 18.6946 124.079 18.6946C126.189 18.6946 126.463 18.8841 126.863 20.9104C127.095 22.0946 126.879 23.263 126.453 24.3893C126.311 24.7683 126.011 24.9314 125.674 25.0262C125.342 25.1209 124.984 25.1788 124.642 25.1788C121.232 25.1788 121.526 24.8525 121.5 28.4314C121.479 31.2367 121.521 34.0472 121.495 36.8525C121.484 37.7999 121.821 38.3735 122.811 38.4367C123.874 38.4999 124.205 39.2209 124.279 40.1156C124.337 40.7683 124.321 41.4314 124.321 42.0893C124.321 50.1578 124.321 58.2314 124.316 66.2999C124.316 66.8683 124.358 67.4578 124.247 68.0051C124.021 69.1157 123.505 69.9841 122.142 69.8736C121.705 69.8367 121.263 69.8314 120.826 69.8736C119.737 69.9841 119.221 69.3999 118.979 68.4314C118.784 67.663 118.689 66.8841 118.689 66.0893C118.695 59.5999 118.689 53.1051 118.689 46.6156H118.684V46.6262Z" fill="#CE000B"></path><path d="M55.1211 47.2054C55.1211 40.458 55.0948 33.7106 55.1474 26.9633C55.1579 25.8106 54.8 25.4422 53.6579 25.4422C50.1263 25.4422 49.7158 24.9738 49.8737 21.4212C49.8948 20.9422 49.9369 20.4527 50.0632 19.9949C50.3158 19.0738 50.8158 18.5633 51.9211 18.5896C55.0737 18.6685 58.2316 18.658 61.3842 18.5949C62.3842 18.5738 62.8369 19.0317 63.0527 19.8738C63.3948 21.2054 63.4369 22.5475 63.1263 23.9054C62.8842 24.9685 62.2579 25.4317 61.1948 25.4685C57.9685 25.5738 57.9685 25.5843 57.9685 28.8106C57.9685 31.3949 57.9842 33.9791 57.9685 36.5685C57.9685 37.4106 58.1 37.9633 59.1579 38.0264C59.9895 38.0738 60.579 38.658 60.6369 39.5896C60.6842 40.3738 60.7421 41.1633 60.7421 41.9527C60.7474 50.0159 60.7421 58.0791 60.7421 66.137C60.7421 66.3106 60.7421 66.4896 60.7421 66.6633C60.6632 70.5896 59.8158 70.0264 56.4264 69.8791C55.5842 69.8422 55.2263 68.937 55.2 68.1001C55.1474 66.5685 55.1369 65.0317 55.1316 63.5001C55.1264 58.0685 55.1316 52.6317 55.1316 47.2001L55.1211 47.2054Z" fill="black"></path><path d="M81.8 44.3106C81.8 37.2527 81.8053 30.1948 81.7948 23.1422C81.7948 21.8633 81.8895 20.6211 82.3895 19.4211C82.5685 18.9843 82.7211 18.6475 83.2842 18.6475C83.8211 18.6475 84.0369 18.9264 84.2211 19.379C84.7053 20.579 84.8527 21.8211 84.8474 23.1001C84.8316 27.6159 84.8474 32.1317 84.8316 36.6422C84.8316 37.4001 84.8316 37.9317 85.879 38.0264C87.1053 38.1369 87.5474 39.079 87.5421 40.3001C87.5316 45.3422 87.5579 50.379 87.5685 55.4211C87.5685 57.5685 87.6053 59.7159 87.5579 61.8632C87.5369 62.8422 87.9158 63.1948 88.8685 63.1632C90.2685 63.1211 91.6843 63.2527 93.0737 63.1317C95.3895 62.9317 95.8579 64.1632 96.1685 66.1001C96.3158 67.0422 96.0316 67.9317 95.6632 68.7738C95.3369 69.5317 94.8211 69.9896 93.8527 69.9738C90.5211 69.9159 87.1895 69.9264 83.8579 69.9738C82.9053 69.9843 82.4158 69.6054 82.1527 68.7264C81.8948 67.8738 81.8106 67.0159 81.8106 66.1317C81.8106 58.858 81.8106 51.579 81.8106 44.3054H81.8V44.3106Z" fill="black"></path><path d="M7.71054 44.4263C7.71054 36.8474 7.71054 29.2632 7.7158 21.6842C7.7158 20.8105 7.74211 19.9369 8.30527 19.1737C8.84738 18.4421 9.42632 18.4369 9.93685 19.1737C10.4369 19.9 10.5158 20.7263 10.5158 21.5579C10.5369 26.379 10.5526 31.2 10.5526 36.0158C10.5526 37.0527 10.4105 38.0421 11.9737 38.1053C12.579 38.1316 13.1263 38.6684 13.1526 39.479C13.1842 40.4369 13.3421 41.4 13.3421 42.3579C13.3579 50.1579 13.3421 57.9579 13.3421 65.7579C13.3421 65.979 13.3474 66.1948 13.3421 66.4158C13.1474 70.5948 12.6158 69.9684 9.10001 69.9053C8.2158 69.8895 7.89475 69.1105 7.81054 68.3421C7.7158 67.4737 7.68948 66.5948 7.68948 65.7158C7.68422 58.6263 7.68422 51.5263 7.68422 44.4263C7.69475 44.4263 7.70001 44.4263 7.71054 44.4263Z" fill="black"></path><path d="M45.6947 8.79476C45.6053 9.21581 45.5263 9.6316 45.2895 10.0211C44.3526 11.5842 43.4579 13.1737 42.5105 14.7369C41.621 16.2105 40.8737 16.2211 39.9737 14.7737C38.9947 13.1895 38.0474 11.579 37.1053 9.96844C36.7632 9.38423 36.4737 8.68423 37.1737 8.23687C37.7895 7.84213 38.2737 8.22108 38.6684 8.8316C39.2053 9.66318 39.8579 10.4211 40.4737 11.2C40.9947 11.8632 41.4474 11.9211 42.0263 11.1684C42.6895 10.3053 43.2158 9.35792 43.8737 8.50529C44.1474 8.15266 44.5 7.55266 45.1105 7.70529C45.5947 7.82634 45.6526 8.33687 45.6895 8.7895L45.6947 8.79476Z" fill="black"></path></svg> 