<svg preserveAspectRatio="xMidYMid meet" data-bbox="0 0 85.93 53.85" viewBox="0 0 85.93 53.85" xmlns="http://www.w3.org/2000/svg" data-type="color" role="presentation" aria-hidden="true" aria-label="">
    <g>
        <path d="M85.93 24.82a9 9 0 0 0-4.7-7.92A9 9 0 0 0 76.93 0H0v53.82h54.1V35.07l9.08 18.78h22.31v-2.24H66v-7.75h19.49v-2.21H66v-7.8h19.49v-2.21h-2.68a9 9 0 0 0 3.12-6.82M54.1 2.2h22.83a6.37 6.37 0 0 1 6.8 6.8 6.81 6.81 0 0 1-6.83 6.79H54.1zm-2.21 49.38H2.21V27.94h49.68zm0-25.84H2.21V2.2h49.68zm11.87 24.77l-8-16.66h8zM76.9 31.64H54.1V18h22.8a6.83 6.83 0 1 1 0 13.65" fill="#010101" data-color="1"/>
    </g>
</svg>